<svg width="512" height="518" viewBox="0 0 512 518" fill="none" xmlns="http://www.w3.org/2000/svg">
<circle cx="256" cy="259" r="256" fill="url(#paint0_linear_20_7)"/>
<path d="M415 267.46C412.375 264.445 409.609 261.423 406.701 258.393C408.729 256.233 410.698 254.08 412.606 251.935C448.509 211.345 463.676 170.62 449.628 146.163C436.162 122.695 396.098 115.698 345.923 125.508C340.987 126.483 336.073 127.578 331.181 128.793C330.242 125.553 329.25 122.328 328.206 119.118C311.183 67.525 283.691 33.9775 255.595 34C228.662 34 202.624 65.4325 186.003 114.055C184.363 118.855 182.849 123.685 181.462 128.545C178.196 127.735 174.915 126.985 171.62 126.295C118.693 115.383 76.0795 122.583 62.0538 147.085C48.6098 170.553 62.6578 208.96 96.2344 247.705C99.575 251.53 103.005 255.28 106.524 258.955C102.364 263.23 98.449 267.528 94.7804 271.803C62.0091 310.008 48.7664 347.763 62.1881 371.14C76.0572 395.305 118.067 403.203 169.226 393.078C173.372 392.253 177.495 391.323 181.596 390.288C183.088 395.552 184.736 400.78 186.54 405.97C203.094 453.602 228.975 484 255.819 484C283.557 484 311.34 451.307 328.184 401.672C329.526 397.757 330.756 393.685 331.964 389.5C337.258 390.82 342.59 391.99 347.959 393.01C397.239 402.393 436.363 395.035 449.762 371.635C463.609 347.448 449.315 306.903 415 267.46ZM78.6073 156.67C87.2419 141.595 122.071 135.7 167.772 145.15C170.695 145.75 173.67 146.425 176.698 147.175C172.23 167.028 169.077 187.157 167.258 207.43C150.777 219.087 135.063 231.803 120.215 245.5C116.949 242.095 113.765 238.608 110.663 235.038C81.8732 201.873 70.5095 170.823 78.6073 156.67ZM165.558 285.55C154.149 276.843 143.524 267.933 133.882 258.978C143.501 250.068 154.127 241.203 165.535 232.518C165.118 241.353 164.916 250.195 164.931 259.045C164.931 267.895 165.14 276.73 165.558 285.55ZM165.558 374.2C146.168 378.543 126.15 379.26 106.502 376.315C101.116 375.891 95.8731 374.361 91.0983 371.818C86.3234 369.276 82.1178 365.775 78.7415 361.533C70.5766 347.358 81.2245 317.028 109.254 284.358C112.773 280.263 116.412 276.273 120.17 272.388C135.025 286.169 150.77 298.947 167.302 310.638C169.14 331.166 172.323 351.551 176.832 371.658C173.104 372.603 169.338 373.458 165.535 374.223L165.558 374.2ZM324.381 193.323C316.88 188.568 309.289 183.97 301.609 179.53C294.033 175.15 286.375 170.928 278.635 166.863C291.36 161.457 304.343 156.689 317.536 152.575C320.497 166.033 322.782 179.633 324.381 193.323ZM204.1 120.288C218.327 78.6625 239.399 53.2375 255.64 53.2375C272.931 53.215 295.39 80.6425 310.087 125.17C311.041 128.08 311.936 131.005 312.771 133.945C293.478 139.959 274.602 147.25 256.266 155.77C237.991 147.146 219.157 139.771 199.895 133.698C201.192 129.198 202.594 124.728 204.1 120.288ZM195.152 152.328C208.285 156.485 221.202 161.306 233.852 166.773C218.163 174.903 202.892 183.76 188.039 193.345C189.828 178.99 192.222 165.243 195.152 152.328ZM188.061 324.677C195.473 329.462 202.997 334.06 210.632 338.47C218.417 342.97 226.298 347.29 234.277 351.43C221.536 357.086 208.514 362.08 195.264 366.393C192.186 352.622 189.782 338.708 188.061 324.7V324.677ZM310.109 395.462C304.158 414.521 294.77 432.315 282.416 447.955C279.365 452.439 275.433 456.245 270.862 459.14C266.292 462.035 261.179 463.956 255.841 464.785C239.534 464.785 218.752 440.372 204.615 399.625C202.944 394.81 201.408 389.95 200.007 385.045C219.361 378.765 238.269 371.173 256.601 362.32C275.093 370.909 294.126 378.267 313.577 384.348C312.503 388.083 311.347 391.788 310.109 395.462ZM318.207 365.673C304.842 361.474 291.688 356.624 278.792 351.138C286.383 347.133 294.026 342.895 301.721 338.425C309.625 333.835 317.32 329.133 324.806 324.318C323.311 338.207 321.109 352.01 318.207 365.673ZM328.206 258.955C328.206 272.62 327.781 286.27 326.931 299.905C315.903 307.42 304.271 314.755 292.169 321.775C280.089 328.773 268.167 335.208 256.445 341.035C244.112 335.095 232.017 328.69 220.162 321.82C208.38 314.995 196.867 307.728 185.623 300.018C184.579 286.368 184.057 272.703 184.057 259.023C184.057 245.358 184.564 231.7 185.578 218.05C208.065 202.608 231.68 188.896 256.221 177.033C268.39 182.988 280.343 189.37 292.079 196.18C303.861 202.99 315.418 210.183 326.752 217.758C327.722 231.468 328.206 245.2 328.206 258.955ZM349.592 144.363C392.586 135.97 424.977 141.618 433.097 155.77C441.754 170.845 429.361 204.1 398.335 239.155C396.62 241.09 394.845 243.033 393.011 244.983C377.9 231.242 361.876 218.553 345.051 207.003C343.356 186.954 340.329 167.042 335.991 147.4C340.614 146.26 345.147 145.248 349.592 144.363ZM346.683 231.775C358.037 240.11 368.953 249.032 379.388 258.505C369.002 268.13 358.123 277.202 346.795 285.685C347.138 276.775 347.31 267.865 347.31 258.955C347.31 249.895 347.101 240.835 346.683 231.775ZM433.231 362.028C425.089 376.225 393.682 382.143 351.515 374.133C346.683 373.218 341.732 372.123 336.662 370.848C340.896 350.952 343.788 330.791 345.319 310.503C362.114 298.758 378.087 285.865 393.123 271.915C395.762 274.66 398.268 277.39 400.639 280.105C414.084 294.81 424.723 311.88 432.023 330.46C434.36 335.359 435.672 340.688 435.88 346.118C436.088 351.547 435.186 356.962 433.231 362.028ZM235.954 223.855C229.112 227.829 223.595 233.755 220.1 240.883C216.606 248.01 215.291 256.02 216.322 263.9C217.353 271.779 220.684 279.174 225.894 285.15C231.103 291.125 237.957 295.413 245.589 297.47C253.221 299.528 261.288 299.263 268.77 296.709C276.253 294.155 282.814 289.427 287.625 283.123C292.436 276.818 295.28 269.221 295.798 261.291C296.316 253.36 294.485 245.454 290.536 238.57C287.913 233.999 284.421 229.991 280.258 226.778C276.096 223.564 271.344 221.207 266.276 219.84C261.207 218.474 255.921 218.125 250.718 218.814C245.515 219.503 240.499 221.216 235.954 223.855Z" fill="url(#paint1_linear_20_7)" fill-opacity="0.5"/>
<path d="M214.125 411L87.05 113.5H178L285.1 371.05H231.55L341.2 113.5H424.5L297 411H214.125Z" fill="url(#paint2_linear_20_7)"/>
<defs>
<linearGradient id="paint0_linear_20_7" x1="256" y1="3" x2="256" y2="515" gradientUnits="userSpaceOnUse">
<stop stop-color="#E8EDDF"/>
<stop offset="1" stop-color="#CFDBD5"/>
</linearGradient>
<linearGradient id="paint1_linear_20_7" x1="256" y1="34" x2="256" y2="484" gradientUnits="userSpaceOnUse">
<stop stop-color="#149ECA"/>
<stop offset="1" stop-color="#30304A"/>
</linearGradient>
<linearGradient id="paint2_linear_20_7" x1="256" y1="0" x2="256" y2="518" gradientUnits="userSpaceOnUse">
<stop stop-color="#333533"/>
<stop offset="1" stop-color="#3A3A3A"/>
</linearGradient>
</defs>
</svg>
